<svg xmlns="http://www.w3.org/2000/svg" width="1200" height="800" viewBox="0 0 1200 800">
  <defs>
    <linearGradient id="g" x1="0" y1="0" x2="1" y2="1">
      <stop stop-color="#0a1310"/>
      <stop offset="1" stop-color="#050806"/>
    </linearGradient>
    <linearGradient id="a" x1="0" y1="0" x2="1" y2="0">
      <stop stop-color="rgba(100,214,59,0)"/>
      <stop offset="0.5" stop-color="rgba(100,214,59,.35)"/>
      <stop offset="1" stop-color="rgba(100,214,59,0)"/>
    </linearGradient>
  </defs>
  <rect width="1200" height="800" fill="url(#g)"/>
  <circle cx="860" cy="190" r="200" fill="rgba(255,255,255,.08)"/>
  <path d="M-50 700C260 520 520 460 1300 180" stroke="url(#a)" stroke-width="28" opacity=".8"/>
  <path d="M-120 780C260 610 560 520 1320 260" stroke="url(#a)" stroke-width="16" opacity=".6"/>
  <text x="70" y="120" font-family="Arial, sans-serif" font-weight="900" font-size="52" fill="rgba(233,242,238,.92)">Галерея 01</text>
  <text x="70" y="175" font-family="Arial, sans-serif" font-weight="700" font-size="22" fill="rgba(233,242,238,.70)">Placeholder image • replace in assets/img/gallery</text>
  <g transform="translate(70 250)" opacity=".9">
    <rect x="0" y="0" width="420" height="250" rx="26" fill="rgba(12,18,16,.65)" stroke="rgba(190,255,220,.14)"/>
    <circle cx="120" cy="125" r="70" fill="rgba(100,214,59,.14)"/>
    <path d="M230 80h150v26H230zM230 125h120v26H230zM230 170h170v26H230z" fill="rgba(233,242,238,.70)"/>
  </g>
</svg>