<svg xmlns="http://www.w3.org/2000/svg" width="900" height="1100" viewBox="0 0 900 1100">
  <defs>
    <linearGradient id="bg" x1="0" y1="0" x2="1" y2="1">
      <stop stop-color="#0a1310"/>
      <stop offset="1" stop-color="#050806"/>
    </linearGradient>
    <linearGradient id="beam" x1="0" y1="0" x2="1" y2="0">
      <stop stop-color="rgba(100,214,59,0)"/>
      <stop offset="0.5" stop-color="rgba(100,214,59,.45)"/>
      <stop offset="1" stop-color="rgba(100,214,59,0)"/>
    </linearGradient>
  </defs>

  <rect width="900" height="1100" fill="url(#bg)"/>
  <path d="M-120 860C220 690 520 610 1050 360" stroke="url(#beam)" stroke-width="26" opacity=".8"/>
  <circle cx="450" cy="360" r="190" fill="rgba(255,255,255,.08)" stroke="rgba(190,255,220,.14)" stroke-width="2"/>

  <!-- player silhouette (abstract) -->
  <path d="M470 270c35-25 84-20 112 12 28 33 22 82-15 112l-22 18 44 42c28 28 28 73 0 101l-62 62c-28 28-73 28-101 0l-44-44-44 44c-28 28-73 28-101 0l-62-62c-28-28-28-73 0-101l44-42-22-18c-37-30-43-79-15-112 28-32 77-37 112-12l44 32 44-32Z"
        fill="rgba(255,255,255,.12)" stroke="rgba(190,255,220,.14)" stroke-width="2"/>

  <!-- ball -->
  <g transform="translate(650 780)" opacity=".92">
    <circle cx="90" cy="90" r="70" fill="rgba(235,245,240,.92)" stroke="rgba(255,255,255,.18)" stroke-width="2"/>
    <path d="M90 48l18 12-6 22H78l-6-22 18-12Z" fill="rgba(10,16,14,.85)"/>
    <path d="M60 76l22 10 6 22-14 16-22-8-4-22 12-18Z" fill="rgba(10,16,14,.8)"/>
    <path d="M120 76l-22 10-6 22 14 16 22-8 4-22-12-18Z" fill="rgba(10,16,14,.8)"/>
  </g>

  <text x="60" y="100" font-family="Arial, sans-serif" font-weight="900" font-size="44" fill="rgba(233,242,238,.92)">Graduate Photo</text>
  <text x="60" y="150" font-family="Arial, sans-serif" font-weight="700" font-size="22" fill="rgba(233,242,238,.70)">replace in assets/img/graduates</text>
</svg>
